<svg width="161" height="26" viewBox="0 0 161 26" fill="none" xmlns="http://www.w3.org/2000/svg">
<path d="M108.99 15.0769H104.904V16.9896H108.99V15.0769Z" fill="#50B848"/>
<path d="M90.3145 11.9401H92.5068V20.0597H94.6713V11.9401H96.8658V10.0427H90.3145V11.9401ZM87.3039 13.8097H83.4428V10.0427H81.2783V20.0533H83.4428V15.7114H87.306V20.0533H89.4705V10.0427H87.306L87.3039 13.8097ZM72.1181 10.0427H69.9515V18.1623H66.3554V10.0427H64.193V20.0533H71.2699V22.2498H73.2912V18.1623H72.1203L72.1181 10.0427ZM138.571 20.0618H144.252V18.1623H140.739V15.7584H144.105V13.8567H140.739V11.9337H144.252V10.0427H138.577L138.571 20.0618ZM135.635 14.658C135.79 14.5426 135.929 14.4075 136.049 14.2563C136.372 13.8411 136.541 13.3269 136.528 12.8012C136.538 12.3988 136.456 11.9993 136.29 11.6327C136.124 11.266 135.877 10.9416 135.568 10.6837C134.731 10.0427 133.645 10.0427 133.105 10.0427H130.556V20.0533H133.974C134.829 20.0533 135.767 19.908 136.538 19.2328C136.823 18.9688 137.048 18.6476 137.199 18.2903C137.35 17.9331 137.423 17.5479 137.415 17.1601C137.428 16.8061 137.369 16.453 137.242 16.1224C137.114 15.7917 136.921 15.4905 136.673 15.2371C136.382 14.9589 136.024 14.7596 135.635 14.658ZM132.724 11.8504H133.152C133.486 11.8362 133.817 11.9258 134.098 12.1068C134.228 12.2037 134.331 12.3315 134.399 12.4785C134.466 12.6256 134.496 12.7872 134.485 12.9486C134.493 13.1783 134.435 13.4055 134.316 13.6025C134.17 13.8161 133.95 13.9683 133.699 14.0298C133.516 14.0779 133.328 14.1009 133.139 14.0982H132.729L132.724 11.8504ZM135.075 17.5298C134.985 17.7273 134.836 17.8917 134.647 17.9999C134.264 18.1854 133.84 18.2699 133.415 18.2456H132.727V15.8119H133.297C133.72 15.7833 134.145 15.8453 134.543 15.9935C134.769 16.0865 134.954 16.258 135.064 16.4764C135.14 16.6344 135.178 16.8076 135.177 16.9828C135.18 17.168 135.143 17.3517 135.068 17.5212L135.075 17.5298ZM74.1929 20.0533H79.8702V18.1623H76.3574V15.7584H79.7228V13.8567H76.3574V11.9337H79.8681V10.0427H74.1929V20.0533ZM153.536 10.0427V11.9465H155.731V20.0661H157.906V11.9465H160.1V10.0427H153.536ZM103.342 10.8162C103.001 10.5095 102.59 10.2896 102.146 10.1752C101.666 10.0663 101.174 10.0183 100.682 10.032H97.7119V20.0533H99.8786V16.4529H100.977C102.126 16.4529 102.968 16.1217 103.541 15.5512C104.329 14.7606 104.383 13.673 104.383 13.2798C104.393 12.8207 104.306 12.3646 104.127 11.9417C103.948 11.5188 103.681 11.1388 103.344 10.8269L103.342 10.8162ZM101.684 14.2606C101.314 14.5384 100.887 14.5405 100.522 14.5405H99.8807V11.9401H100.408C100.857 11.9401 101.323 11.9721 101.678 12.22C101.833 12.3369 101.958 12.4892 102.043 12.6642C102.128 12.8393 102.17 13.032 102.165 13.2264C102.167 13.4237 102.125 13.619 102.041 13.7979C101.958 13.9768 101.836 14.1349 101.684 14.2606ZM150.385 9.81832C148.972 9.81832 147.718 10.1922 146.711 11.1431C145.857 11.938 145.105 13.2478 145.105 15.0555C145.083 15.7707 145.215 16.4823 145.491 17.1422C145.768 17.802 146.184 18.3947 146.709 18.8802C147.543 19.6708 148.632 20.2798 150.372 20.2776C151.232 20.2902 152.082 20.089 152.846 19.6922L152.917 19.6558V16.9892L152.684 17.2648C152.418 17.585 152.085 17.8425 151.708 18.0191C151.331 18.1956 150.92 18.2868 150.504 18.2862C149.702 18.2895 148.926 17.9974 148.325 17.4657C147.998 17.1628 147.74 16.7934 147.569 16.3824C147.397 15.9714 147.315 15.5284 147.329 15.0832C147.322 14.2412 147.627 13.4263 148.184 12.7948C148.465 12.4791 148.811 12.2275 149.198 12.0572C149.585 11.8869 150.004 11.8018 150.427 11.8076C150.857 11.8114 151.28 11.9072 151.669 12.0886C152.059 12.2699 152.405 12.5326 152.684 12.8589L152.917 13.1238V10.47L152.848 10.4337C152.093 10.0224 151.245 9.81059 150.385 9.81832ZM112.261 16.3439V10.0427H110.099V20.0533H111.752L116.789 13.72V20.0533H118.953V10.0427H117.267L112.261 16.3439ZM126.69 13.8097H122.829V10.0427H120.665V20.0533H122.829V15.7114H126.692V20.0533H128.846V10.0427H126.692L126.69 13.8097Z" fill="#50B848"/>
<path d="M68.9045 3.75649C68.3329 3.29401 67.6111 3.05821 66.8767 3.09411H65.9665V1.58557H68.9408V0.0214844H64.193V8.02569H66.881C67.2832 8.03331 67.6841 7.97779 68.069 7.86116C68.5338 7.71801 68.938 7.42498 69.2186 7.02783C69.5137 6.60009 69.671 6.09237 69.6694 5.57272C69.6789 5.23293 69.6155 4.89507 69.4836 4.5818C69.3516 4.26854 69.1542 3.98714 68.9045 3.75649ZM67.6224 6.15818C67.4494 6.32057 67.1267 6.4616 66.5413 6.4616H65.9537V4.66033H66.5648C67.1203 4.66033 67.4344 4.79708 67.6096 4.96802C67.6894 5.04881 67.7519 5.14509 67.793 5.25093C67.8342 5.35677 67.8532 5.46992 67.8489 5.5834C67.8536 5.68899 67.8366 5.79441 67.7992 5.89324C67.7617 5.99206 67.7045 6.08221 67.631 6.15818H67.6224ZM89.5881 3.73299L92.9876 0.0214844H90.7227L88.0731 3.06847V0.0214844H86.2975V8.02569H88.0731V4.65179L88.1009 4.62187L90.7996 8.02569H93.15L89.5881 3.73299ZM73.1032 0.0214844L69.7058 8.02569H71.6288L72.3147 6.40177H75.2591L75.945 8.02569H77.8553L74.5519 0.0214844H73.1032ZM72.8895 4.90606L73.8062 2.61121L74.7121 4.9146L72.8895 4.90606ZM83.1885 3.01505H80.1886V0.0214844H78.4194V8.02569H80.195V4.57914H83.2035V8.02569H84.9749V0.0214844H83.2035L83.1885 3.01505Z" fill="#50B848"/>
<path d="M48.0479 0V5.8226L52.7893 0H48.0479Z" fill="#50B848"/>
<path d="M56.1739 0.803223L48.0543 10.7925V13.2796C48.0671 13.2112 48.0756 13.1429 48.0906 13.0659L48.1974 12.6258C48.3806 11.9917 48.6743 11.3949 49.0649 10.863L49.3427 10.5318C49.6453 10.217 49.9897 9.94526 50.3662 9.72408C50.5663 9.6192 50.7725 9.52644 50.9837 9.44631C51.4349 9.30933 51.9056 9.24796 52.3769 9.26469L52.8448 9.32879C53.2168 9.412 53.576 9.54421 53.9132 9.72195C54.103 9.83221 54.2857 9.95424 54.4602 10.0873C54.9611 10.506 55.3756 11.0185 55.6803 11.5959L55.8619 11.9933C56.0062 12.4158 56.1149 12.8496 56.1867 13.2903L56.1739 0.803223Z" fill="#50B848"/>
<path d="M52.1376 10.1775C50.362 10.1775 48.9133 11.998 48.9133 14.2373C48.9133 16.4766 50.362 18.2971 52.1376 18.2971C53.9132 18.2971 55.3662 16.4766 55.3662 14.2373C55.3662 11.998 53.9068 10.1775 52.1376 10.1775ZM52.1376 16.9744C51.0692 16.9744 50.1974 15.7415 50.1974 14.233C50.1974 12.7245 51.0692 11.4894 52.1376 11.4894C53.206 11.4894 54.0842 12.7223 54.0842 14.233C54.0842 15.7437 53.206 16.9744 52.1376 16.9744Z" fill="#50B848"/>
<path d="M48.191 15.8354L48.0777 15.3846C48.0649 15.3162 48.0542 15.2457 48.0414 15.1709V20.0533H56.161V15.2115C56.0611 15.7816 55.891 16.3371 55.6546 16.8653L55.4409 17.2435C55.127 17.7289 54.7291 18.1544 54.2657 18.4999L53.8896 18.7371C53.5523 18.9144 53.1931 19.0466 52.8213 19.1303C52.5868 19.1708 52.3497 19.1944 52.1119 19.2008C51.7985 19.1925 51.487 19.1509 51.1824 19.0768C50.964 19.0112 50.7499 18.932 50.5414 18.8397C50.0867 18.6055 49.6744 18.2972 49.3213 17.9273L49.0414 17.594C48.6567 17.0623 48.3688 16.467 48.191 15.8354Z" fill="#50B848"/>
<path d="M37.1206 19.254L45.2402 9.26481V6.77979C45.2402 6.84816 45.2188 6.91654 45.2081 6.99346L45.1013 7.43149C44.916 8.06315 44.6217 8.65756 44.2317 9.18789L43.9517 9.51694C43.6508 9.83205 43.307 10.1032 42.9304 10.3225C42.73 10.4283 42.523 10.5211 42.3107 10.6003C41.8597 10.7379 41.3888 10.7986 40.9176 10.7798L40.4518 10.7178C40.0799 10.6334 39.7207 10.5005 39.3834 10.3225C39.1931 10.2127 39.0097 10.0914 38.8343 9.95925C38.3359 9.54361 37.9224 9.03577 37.6163 8.46353L37.4304 8.0661C37.2875 7.64409 37.1795 7.211 37.1078 6.77124L37.1206 19.254Z" fill="#50B848"/>
<path d="M41.1676 9.87813C42.9454 9.87813 44.3941 8.05977 44.3941 5.81834C44.3941 3.5769 42.9454 1.75854 41.1676 1.75854C39.3899 1.75854 37.9433 3.57904 37.9433 5.81834C37.9433 8.05763 39.392 9.87813 41.1676 9.87813ZM41.1676 3.07905C42.236 3.07905 43.1121 4.31194 43.1121 5.82475C43.1121 7.33755 42.2403 8.56618 41.1676 8.56618C40.095 8.56618 39.2232 7.33542 39.2232 5.82475C39.2232 4.31408 40.0971 3.07905 41.1655 3.07905H41.1676Z" fill="#50B848"/>
<path d="M45.1078 4.22432L45.2146 4.66662C45.2146 4.73714 45.2381 4.80551 45.2467 4.86961V0H37.1271V4.84611C37.2273 4.27587 37.3981 3.72032 37.6356 3.19228L37.8493 2.81408C38.1637 2.32851 38.5616 1.90242 39.0245 1.55554L39.3984 1.31836C39.7363 1.14264 40.0953 1.01122 40.4668 0.927342C40.6984 0.886653 40.9326 0.862377 41.1676 0.854693C41.4816 0.862261 41.7939 0.903087 42.0993 0.976487C42.3171 1.04284 42.5311 1.12131 42.7403 1.21153C43.1955 1.45005 43.6078 1.76273 43.9603 2.13673L44.2317 2.45724C44.6236 2.99128 44.92 3.58914 45.1078 4.22432Z" fill="#50B848"/>
<path d="M45.2466 14.2349L40.5073 20.0532H45.2466V14.2349Z" fill="#50B848"/>
<path d="M53.8812 0L37.5907 20.0532H39.3898L55.7145 0H53.8812Z" fill="#50B848"/>
<path d="M47.4513 18.4436H45.8263V20.0686H47.4513V18.4436Z" fill="#50B848"/>
<path d="M56.988 18.675V20.0554C57.9409 20.0554 58.6055 20.9571 58.6055 21.8994C58.6055 22.8417 57.8298 23.7391 56.879 23.7391C56.176 23.7391 55.535 23.5831 54.2059 23.2562L45.9047 21.2242C41.3342 20.1002 37.1441 21.3737 37.1227 24.3438H38.5138C38.5138 23.2391 40.6505 22.5083 45.2338 23.628L53.6675 25.6964C55.6375 26.1793 57.2508 26.0639 58.4131 25.5083C59.5755 24.9464 60.3725 23.5853 60.3725 22.222C60.3768 20.3139 58.9196 18.675 56.988 18.675Z" fill="#50B848"/>
<path fill-rule="evenodd" clip-rule="evenodd" d="M32.6655 13.9806C32.9637 12.6845 33.1072 11.3576 33.0929 10.0277C33.0886 0.192306 26.7746 0 25.3921 0C24.0096 0 17.6999 0.190169 17.6999 10.0256C17.6861 11.3554 17.8295 12.6823 18.1272 13.9785H22.4007C22.0567 12.7242 21.9968 11.2499 21.9968 10.0256C21.9968 7.2884 22.296 3.30553 25.4156 3.30553C28.6207 3.30553 28.8344 7.2072 28.8344 10.0256C28.8344 11.2755 28.7916 12.7371 28.4647 13.9785L32.6655 13.9806ZM0.00129509 12.9807C-0.107678 20.2156 6.69354 20.0532 7.8602 20.0532C9.37728 20.0532 15.1721 19.6579 15.1721 14.2541C15.1721 11.0832 13.1123 9.8653 11.1615 9.64735V9.56615C12.326 9.26915 14.5482 8.34608 14.5482 5.36534C14.5546 3.14527 13.3067 0 7.75336 0C1.52051 0 0.48847 4.09184 0.48847 6.80122H4.47348C4.47348 3.82048 6.04611 3.30553 7.53542 3.30553C9.97343 3.30553 10.5696 4.76919 10.5696 5.74354C10.5696 8.01916 8.48413 8.12813 7.50764 8.12813H6.07175V11.2478H7.96917C10.4884 11.2478 10.9606 12.7435 10.9606 13.8482C10.9606 14.5255 10.7469 16.7477 7.70849 16.7477C4.94356 16.7477 4.2128 14.6345 4.2128 12.9807H0.00129509Z" fill="#50B848"/>
<path d="M17.8409 19.9966C18.0049 20.0299 18.1716 20.047 18.3389 20.0479C19.3626 20.0479 20.0293 19.785 20.0721 17.5111L20.087 16.5473H21.2368V19.9795H22.5191V15.686H18.8646L18.8219 17.5218C18.7791 18.866 18.6082 19.1289 18.0525 19.1289C17.981 19.1275 17.9096 19.1218 17.8388 19.1118L17.8409 19.9966Z" fill="#50B848"/>
<path d="M24.7213 17.4276C24.747 16.9874 25.0162 16.3868 25.7792 16.3868C26.0912 16.3868 26.6575 16.5044 26.6832 17.4276H24.7213ZM26.6233 18.7376C26.5143 19.118 26.1254 19.2783 25.7535 19.2783C24.9243 19.2783 24.7213 18.5603 24.7213 18.1457H28.0189V17.9084C27.9847 17.3849 27.9099 15.5234 25.8027 15.5234C24.3986 15.5234 23.392 16.3441 23.392 17.823C23.392 20.022 25.1338 20.1396 25.7001 20.1396C26.4866 20.1396 27.5936 19.9537 27.9312 18.7355L26.6233 18.7376Z" fill="#50B848"/>
<path d="M29.8795 16.5473V19.9795H31.1639V16.5473H32.5851V15.686H28.4583V16.5473H29.8795Z" fill="#50B848"/>
</svg>
